<svg width="25" height="25" viewBox="0 0 25 25" fill="none" xmlns="http://www.w3.org/2000/svg">
<path d="M17 4.06V2.5C17 2.09 16.66 1.75 16.25 1.75C15.84 1.75 15.5 2.09 15.5 2.5V4H8.99999V2.5C8.99999 2.09 8.65999 1.75 8.24999 1.75C7.83999 1.75 7.49999 2.09 7.49999 2.5V4.06C4.79999 4.31 3.48999 5.92 3.28999 8.31C3.26999 8.6 3.50999 8.84 3.78999 8.84H20.71C21 8.84 21.24 8.59 21.21 8.31C21.01 5.92 19.7 4.31 17 4.06Z" fill="#EAACC3"/>
<path d="M20.25 10.34H4.25C3.7 10.34 3.25 10.79 3.25 11.34V17.5C3.25 20.5 4.75 22.5 8.25 22.5H16.25C19.75 22.5 21.25 20.5 21.25 17.5V11.34C21.25 10.79 20.8 10.34 20.25 10.34ZM9.46 18.71C9.41 18.75 9.36 18.8 9.31 18.83C9.25 18.87 9.19 18.9 9.13 18.92C9.07 18.95 9.01 18.97 8.95 18.98C8.88 18.99 8.82 19 8.75 19C8.62 19 8.49 18.97 8.37 18.92C8.24 18.87 8.14 18.8 8.04 18.71C7.86 18.52 7.75 18.26 7.75 18C7.75 17.74 7.86 17.48 8.04 17.29C8.14 17.2 8.24 17.13 8.37 17.08C8.55 17 8.75 16.98 8.95 17.02C9.01 17.03 9.07 17.05 9.13 17.08C9.19 17.1 9.25 17.13 9.31 17.17C9.36 17.21 9.41 17.25 9.46 17.29C9.64 17.48 9.75 17.74 9.75 18C9.75 18.26 9.64 18.52 9.46 18.71ZM9.46 15.21C9.27 15.39 9.01 15.5 8.75 15.5C8.49 15.5 8.23 15.39 8.04 15.21C7.86 15.02 7.75 14.76 7.75 14.5C7.75 14.24 7.86 13.98 8.04 13.79C8.32 13.51 8.76 13.42 9.13 13.58C9.26 13.63 9.37 13.7 9.46 13.79C9.64 13.98 9.75 14.24 9.75 14.5C9.75 14.76 9.64 15.02 9.46 15.21ZM12.96 18.71C12.77 18.89 12.51 19 12.25 19C11.99 19 11.73 18.89 11.54 18.71C11.36 18.52 11.25 18.26 11.25 18C11.25 17.74 11.36 17.48 11.54 17.29C11.91 16.92 12.59 16.92 12.96 17.29C13.14 17.48 13.25 17.74 13.25 18C13.25 18.26 13.14 18.52 12.96 18.71ZM12.96 15.21C12.91 15.25 12.86 15.29 12.81 15.33C12.75 15.37 12.69 15.4 12.63 15.42C12.57 15.45 12.51 15.47 12.45 15.48C12.38 15.49 12.32 15.5 12.25 15.5C11.99 15.5 11.73 15.39 11.54 15.21C11.36 15.02 11.25 14.76 11.25 14.5C11.25 14.24 11.36 13.98 11.54 13.79C11.63 13.7 11.74 13.63 11.87 13.58C12.24 13.42 12.68 13.51 12.96 13.79C13.14 13.98 13.25 14.24 13.25 14.5C13.25 14.76 13.14 15.02 12.96 15.21ZM16.46 18.71C16.27 18.89 16.01 19 15.75 19C15.49 19 15.23 18.89 15.04 18.71C14.86 18.52 14.75 18.26 14.75 18C14.75 17.74 14.86 17.48 15.04 17.29C15.41 16.92 16.09 16.92 16.46 17.29C16.64 17.48 16.75 17.74 16.75 18C16.75 18.26 16.64 18.52 16.46 18.71ZM16.46 15.21C16.41 15.25 16.36 15.29 16.31 15.33C16.25 15.37 16.19 15.4 16.13 15.42C16.07 15.45 16.01 15.47 15.95 15.48C15.88 15.49 15.81 15.5 15.75 15.5C15.49 15.5 15.23 15.39 15.04 15.21C14.86 15.02 14.75 14.76 14.75 14.5C14.75 14.24 14.86 13.98 15.04 13.79C15.14 13.7 15.24 13.63 15.37 13.58C15.55 13.5 15.75 13.48 15.95 13.52C16.01 13.53 16.07 13.55 16.13 13.58C16.19 13.6 16.25 13.63 16.31 13.67C16.36 13.71 16.41 13.75 16.46 13.79C16.64 13.98 16.75 14.24 16.75 14.5C16.75 14.76 16.64 15.02 16.46 15.21Z" fill="#EAACC3"/>
</svg>
