<svg width="25" height="25" viewBox="0 0 25 25" fill="none" xmlns="http://www.w3.org/2000/svg">
<path d="M13.75 0.5H5.75C2.25 0.5 0.75 2.5 0.75 5.5V15.5C0.75 18.5 2.25 20.5 5.75 20.5H13.75C17.25 20.5 18.75 18.5 18.75 15.5V5.5C18.75 2.5 17.25 0.5 13.75 0.5ZM5.75 10.75H9.75C10.16 10.75 10.5 11.09 10.5 11.5C10.5 11.91 10.16 12.25 9.75 12.25H5.75C5.34 12.25 5 11.91 5 11.5C5 11.09 5.34 10.75 5.75 10.75ZM13.75 16.25H5.75C5.34 16.25 5 15.91 5 15.5C5 15.09 5.34 14.75 5.75 14.75H13.75C14.16 14.75 14.5 15.09 14.5 15.5C14.5 15.91 14.16 16.25 13.75 16.25ZM16.25 7.75H14.25C12.73 7.75 11.5 6.52 11.5 5V3C11.5 2.59 11.84 2.25 12.25 2.25C12.66 2.25 13 2.59 13 3V5C13 5.69 13.56 6.25 14.25 6.25H16.25C16.66 6.25 17 6.59 17 7C17 7.41 16.66 7.75 16.25 7.75Z" fill="#E93D82"/>
</svg>
