<svg width="25" height="25" viewBox="0 0 25 25" fill="none" xmlns="http://www.w3.org/2000/svg">
<path d="M12.25 2.5C6.74 2.5 2.25 6.99 2.25 12.5C2.25 18.01 6.74 22.5 12.25 22.5C17.76 22.5 22.25 18.01 22.25 12.5C22.25 6.99 17.76 2.5 12.25 2.5ZM8.25 13.5C7.69 13.5 7.25 13.05 7.25 12.5C7.25 11.95 7.7 11.5 8.25 11.5C8.8 11.5 9.25 11.95 9.25 12.5C9.25 13.05 8.81 13.5 8.25 13.5ZM12.25 13.5C11.69 13.5 11.25 13.05 11.25 12.5C11.25 11.95 11.7 11.5 12.25 11.5C12.8 11.5 13.25 11.95 13.25 12.5C13.25 13.05 12.81 13.5 12.25 13.5ZM16.25 13.5C15.69 13.5 15.25 13.05 15.25 12.5C15.25 11.95 15.7 11.5 16.25 11.5C16.8 11.5 17.25 11.95 17.25 12.5C17.25 13.05 16.81 13.5 16.25 13.5Z" fill="#EAACC3"/>
</svg>
