<svg width="25" height="25" viewBox="0 0 25 25" fill="none" xmlns="http://www.w3.org/2000/svg">
<path d="M9.75 2.5C7.13 2.5 5 4.63 5 7.25C5 9.82 7.01 11.9 9.63 11.99C9.71 11.98 9.79 11.98 9.85 11.99C9.87 11.99 9.88 11.99 9.9 11.99C9.91 11.99 9.91 11.99 9.92 11.99C12.48 11.9 14.49 9.82 14.5 7.25C14.5 4.63 12.37 2.5 9.75 2.5Z" fill="#EAACC3"/>
<path d="M14.83 14.65C12.04 12.79 7.49001 12.79 4.68001 14.65C3.41001 15.5 2.71001 16.65 2.71001 17.88C2.71001 19.11 3.41001 20.25 4.67001 21.09C6.07001 22.03 7.91001 22.5 9.75001 22.5C11.59 22.5 13.43 22.03 14.83 21.09C16.09 20.24 16.79 19.1 16.79 17.86C16.78 16.63 16.09 15.49 14.83 14.65Z" fill="#EAACC3"/>
<path d="M20.74 7.84001C20.9 9.78001 19.52 11.48 17.61 11.71C17.6 11.71 17.6 11.71 17.59 11.71H17.56C17.5 11.71 17.44 11.71 17.39 11.73C16.42 11.78 15.53 11.47 14.86 10.9C15.89 9.98001 16.48 8.60001 16.36 7.10001C16.29 6.29001 16.01 5.55001 15.59 4.92001C15.97 4.73001 16.41 4.61001 16.86 4.57001C18.82 4.40001 20.57 5.86001 20.74 7.84001Z" fill="#EAACC3"/>
<path d="M22.74 17.09C22.66 18.06 22.04 18.9 21 19.47C20 20.02 18.74 20.28 17.49 20.25C18.21 19.6 18.63 18.79 18.71 17.93C18.81 16.69 18.22 15.5 17.04 14.55C16.37 14.02 15.59 13.6 14.74 13.29C16.95 12.65 19.73 13.08 21.44 14.46C22.36 15.2 22.83 16.13 22.74 17.09Z" fill="#EAACC3"/>
</svg>
